<?xml version="1.0" encoding="UTF-8"?>
<svg width="156px" height="170px" viewBox="0 0 156 170" version="1.1" xmlns="http://www.w3.org/2000/svg" xmlns:xlink="http://www.w3.org/1999/xlink">
    <!-- Generator: Sketch 51.2 (57519) - http://www.bohemiancoding.com/sketch -->
    <title>year</title>
    <desc>Created with Sketch.</desc>
    <defs></defs>
    <g id="Page-1" stroke="none" stroke-width="1" fill="none" fill-rule="evenodd">
        <g id="icons" transform="translate(-421.000000, -233.000000)">
            <g id="year" transform="translate(421.000000, 233.000000)">
                <g id="arrow" fill="#E20000">
                    <path d="M0.156433932,105 L19.4121423,105 C25.3513863,131.88712 49.3268857,152 78,152 C111.137085,152 138,125.137085 138,92 C138,58.862915 111.137085,32 78,32 C68.2872343,32 59.1134994,34.3078648 50.9972557,38.4051337 L41.7081956,21.6158255 C52.440601,16.108075 64.6073356,13 77.5,13 C120.854353,13 156,48.1456471 156,91.5 C156,134.854353 120.854353,170 77.5,170 C38.7489389,170 6.55595412,141.921537 0.156433932,105 Z" id="Combined-Shape"></path>
                    <polygon id="Triangle-2" transform="translate(34.000000, 35.500000) rotate(-115.000000) translate(-34.000000, -35.500000) " points="34 15 63 56 5 56"></polygon>
                </g>
                <text id="365" font-family="AndaleMono, Andale Mono" font-size="50" font-weight="normal" letter-spacing="0.708847523" fill="#EE0000">
                    <tspan x="35" y="107">365</tspan>
                </text>
            </g>
        </g>
    </g>
</svg>